<svg width="18" height="18" viewBox="0 0 18 18" fill="none" xmlns="http://www.w3.org/2000/svg">
<path d="M16.875 8.96655H1.125C0.504738 8.96655 0 9.47129 0 10.0916C0 10.7118 0.504738 11.2166 1.125 11.2166H16.875C17.4953 11.2166 18 10.7118 18 10.0916C18 9.47129 17.4953 8.96655 16.875 8.96655Z" fill="black"/>
<path d="M16.9784 10.4809C16.7751 10.4239 16.5711 10.5394 16.5149 10.7389L16.4856 10.8416H1.51486L1.48487 10.7389C1.42862 10.5394 1.22313 10.4254 1.02137 10.4809C0.821861 10.5378 0.707111 10.7456 0.764135 10.9444L1.79762 14.5623C2.11786 15.6836 3.15588 16.4666 4.32138 16.4666H13.6776C14.8439 16.4666 15.8811 15.6836 16.2014 14.5623L17.2349 10.9444C17.2926 10.7456 17.1771 10.5378 16.9784 10.4809ZM4.32212 14.9666C3.82262 14.9666 3.37712 14.6313 3.24061 14.1506L2.75387 12.4451C2.69688 12.2456 2.81237 12.0386 3.01111 11.9816C3.2121 11.9246 3.41836 12.0408 3.47461 12.2396L3.96135 13.9451C4.00786 14.1048 4.15559 14.2173 4.32209 14.2173C4.52909 14.2173 4.6971 14.3853 4.6971 14.5923C4.69713 14.7993 4.52912 14.9666 4.32212 14.9666Z" fill="black"/>
<path d="M5.04221 15.7556C4.85698 15.6649 4.63271 15.7376 4.53895 15.9236L3.78896 17.4236C3.69671 17.6089 3.7717 17.8339 3.95698 17.9269C4.01171 17.9539 4.06874 17.9666 4.12499 17.9666C4.26224 17.9666 4.39425 17.8909 4.46024 17.7589L5.21023 16.2589C5.30248 16.0736 5.22745 15.8486 5.04221 15.7556Z" fill="black"/>
<path d="M14.2109 17.4244L13.461 15.9244C13.368 15.7384 13.143 15.6641 12.9577 15.7564C12.7725 15.8494 12.6974 16.0744 12.7897 16.2596L13.5397 17.7597C13.6057 17.8909 13.7377 17.9667 13.8749 17.9667C13.9312 17.9667 13.9882 17.9539 14.0429 17.9277C14.2282 17.8346 14.3032 17.6096 14.2109 17.4244Z" fill="black"/>
<path d="M15.0637 0.0334473C14.6812 0.0334473 14.3212 0.182686 14.0504 0.453459L12.8602 1.64371C12.7139 1.78996 12.7139 2.02772 12.8602 2.17397C13.0064 2.32022 13.2442 2.32022 13.3904 2.17397L14.5807 0.984459C14.7089 0.855471 14.8806 0.784209 15.0674 0.784209C15.4439 0.784209 15.7499 1.09021 15.7499 1.4667V9.3417C15.7499 9.5487 15.9179 9.71671 16.1249 9.71671C16.3319 9.71671 16.4999 9.5487 16.5006 9.34096V1.46596C16.5007 0.676209 15.8587 0.0334473 15.0637 0.0334473Z" fill="black"/>
<path d="M13.7654 2.01864L13.0154 1.26865C12.9299 1.18315 12.8107 1.14339 12.6892 1.16364L10.8142 1.47115C10.6762 1.49365 10.5629 1.59114 10.5187 1.72315C10.4744 1.85517 10.5082 2.00215 10.6057 2.10189L12.8557 4.41939C12.9269 4.49364 13.0252 4.5334 13.1242 4.5334C13.1594 4.5334 13.1954 4.52817 13.2307 4.51765C13.3641 4.47867 13.4654 4.36842 13.4924 4.2319L13.8674 2.35692C13.8921 2.23464 13.8539 2.10787 13.7654 2.01864Z" fill="black"/>
<path d="M8.88969 4.57685C8.74344 4.4306 8.50568 4.4306 8.35943 4.57685L7.60944 5.32684C7.46319 5.47309 7.46319 5.71085 7.60944 5.8571C7.68295 5.92984 7.77893 5.96662 7.87494 5.96662C7.97095 5.96662 8.06693 5.92988 8.1397 5.8571L8.88969 5.10711C9.03594 4.96083 9.03594 4.7231 8.88969 4.57685Z" fill="#A8A8A8"/>
<path d="M10.3897 6.07685C10.2434 5.9306 10.0057 5.9306 9.85944 6.07685L9.10944 6.82684C8.96319 6.97309 8.96319 7.21085 9.10944 7.3571C9.18296 7.42984 9.27893 7.46662 9.37495 7.46662C9.47096 7.46662 9.56693 7.42988 9.63971 7.3571L10.3897 6.60711C10.536 6.46086 10.536 6.2231 10.3897 6.07685Z" fill="#A8A8A8"/>
<path d="M11.1397 3.82685C10.9934 3.6806 10.7557 3.6806 10.6094 3.82685L9.85944 4.57684C9.71319 4.72309 9.71319 4.96085 9.85944 5.1071C9.93296 5.17984 10.0289 5.21662 10.1249 5.21662C10.221 5.21662 10.3169 5.17988 10.3897 5.1071L11.1397 4.35711C11.286 4.21086 11.286 3.9731 11.1397 3.82685Z" fill="#A8A8A8"/>
</svg>
