<svg width="40" height="40" viewBox="0 0 40 40" fill="none" xmlns="http://www.w3.org/2000/svg">
	<g clip-path="url(#clip0)">
		<path d="M36.9999 34.0001C36.8983 33.9997 36.8015 33.9567 36.7332 33.8814C36.674 33.8189 36.6446 33.7339 36.6525 33.6481C36.6992 33.1644 36.6378 32.6764 36.4725 32.2194C36.2496 31.6073 35.8538 31.0731 35.3332 30.6814V20.3201L35.9679 20.8821C36.5222 21.3724 37.3684 21.323 37.8619 20.7714L39.6619 18.7561C39.8989 18.4904 40.0204 18.1413 39.9994 17.7858C39.9783 17.4304 39.8166 17.098 39.5499 16.8621L33.9999 11.9481V3.81476C34.4111 3.57848 34.6651 3.14097 34.6665 2.66676V1.33342C34.6665 0.597041 34.0696 8.7003e-05 33.3332 8.7003e-05H27.9999C27.2635 8.7003e-05 26.6666 0.597041 26.6666 1.33342V2.66676C26.668 3.14097 26.9221 3.57848 27.3332 3.81476V6.04409L20.8912 0.338087C20.3825 -0.112696 19.6173 -0.112696 19.1086 0.338087L16.4586 2.68542C14.5936 2.41886 12.7021 2.94382 11.2412 4.13342L11.1312 4.22542C11.0027 4.34703 10.8591 4.45166 10.7039 4.53676C10.501 4.58925 10.2906 4.60617 10.0819 4.58676C9.87596 4.57951 9.66977 4.5853 9.46456 4.60409C8.48878 4.75401 7.63683 5.34593 7.15589 6.20809C6.83735 6.76194 6.61593 7.36622 6.50123 7.99476C5.70775 8.01754 4.96634 8.39509 4.48123 9.02343C3.92456 9.78838 3.67718 10.7353 3.78856 11.6748C3.85589 12.3071 4.0003 12.9288 4.21856 13.5261L0.452564 16.8594C0.185074 17.0955 0.0227745 17.4285 0.00162605 17.7847C-0.0195224 18.1408 0.102227 18.4907 0.339897 18.7568L2.1399 20.7714C2.63314 21.3232 3.47941 21.3729 4.0339 20.8828L4.66656 20.3208V30.6814C4.14661 31.0734 3.75135 31.6076 3.52856 32.2194C3.36344 32.676 3.30195 33.1635 3.34856 33.6468C3.35671 33.733 3.32732 33.8185 3.2679 33.8814C3.19929 33.957 3.10196 34.0001 2.9999 34.0001C1.3438 34.0019 0.00173463 35.344 -0.000102408 37.0001V37.3334C-0.000102408 38.8062 1.1938 40.0001 2.66656 40.0001H37.3332C38.806 40.0001 39.9999 38.8062 39.9999 37.3334V37.0001C39.998 35.344 38.656 34.0019 36.9999 34.0001ZM27.9999 1.33342H33.3332V2.66676H27.9999V1.33342ZM28.6666 4.00009H32.6665V10.7674L28.6666 7.22476V4.00009ZM5.11723 11.5628C5.03595 10.9567 5.18435 10.3422 5.53323 9.84009C5.82662 9.43725 6.33506 9.25265 6.81856 9.37343C7.00664 9.44162 7.2154 9.42175 7.38723 9.3193C7.55906 9.21684 7.6758 9.04264 7.70523 8.84476C7.77478 8.16233 7.97606 7.49987 8.29789 6.89409C8.5652 6.38743 9.05034 6.03156 9.61389 5.92876C9.76084 5.91563 9.90852 5.91251 10.0559 5.91942C10.4413 5.94807 10.8285 5.8991 11.1946 5.77542C11.4861 5.64067 11.7545 5.46067 11.9899 5.24209L12.0912 5.15742C12.922 4.48736 13.9319 4.07714 14.9946 3.97809L5.3119 12.5574C5.21477 12.233 5.14957 11.8999 5.11723 11.5628ZM3.13323 19.8834L1.33323 17.8601L20.0072 1.33342L38.6665 17.8668L36.8666 19.8814C36.8621 19.8851 36.8557 19.8851 36.8512 19.8814L20.8912 5.74809C20.3827 5.29601 19.6164 5.29601 19.1079 5.74809L3.13323 19.8834ZM5.9999 19.1408L20.0072 6.74676L33.9999 19.1394V30.0728C33.9679 30.0661 33.9372 30.0554 33.9052 30.0501C32.3851 29.7881 30.8832 30.6008 30.2712 32.0168C28.9615 31.8853 27.751 32.7267 27.4179 34.0001H26.6666C26.4427 33.9999 26.2193 34.0222 25.9999 34.0668V28.0001C25.9999 24.6864 23.3136 22.0001 19.9999 22.0001C16.6862 22.0001 13.9999 24.6864 13.9999 28.0001V34.0668C13.7805 34.0222 13.5571 33.9999 13.3332 34.0001H12.5819C12.2508 32.725 11.0392 31.882 9.72856 32.0148C9.11864 30.5969 7.61513 29.7833 6.09456 30.0481C6.06256 30.0534 6.0319 30.0641 5.9999 30.0708V19.1408ZM23.3332 37.3334V38.6668H20.6666V29.3334C20.6666 28.9652 20.3681 28.6668 19.9999 28.6668C19.6317 28.6668 19.3332 28.9652 19.3332 29.3334V38.6668H16.6666V37.3334C16.6635 36.2898 16.1696 35.3084 15.3332 34.6841V28.0001C15.3377 25.683 17.0401 23.7195 19.3332 23.3868V26.0001C19.3332 26.3683 19.6317 26.6668 19.9999 26.6668C20.3681 26.6668 20.6666 26.3683 20.6666 26.0001V23.3868C22.9596 23.7195 24.6621 25.683 24.6666 28.0001V34.6841C23.8302 35.3084 23.3363 36.2898 23.3332 37.3334ZM14.6666 38.6668H2.66656C1.93018 38.6668 1.33323 38.0698 1.33323 37.3334V37.0001C1.33323 36.0796 2.07942 35.3334 2.9999 35.3334C3.47811 35.3329 3.93402 35.1311 4.2559 34.7774C4.5673 34.4349 4.7198 33.9769 4.6759 33.5161C4.64862 33.2284 4.68598 32.9382 4.78523 32.6668C5.02551 31.9901 5.60847 31.4931 6.31456 31.3628C6.428 31.3435 6.54284 31.3337 6.6579 31.3334C7.61287 31.3299 8.43713 32.002 8.62589 32.9381C8.6647 33.1304 8.78621 33.2958 8.95807 33.3904C9.12994 33.4849 9.33472 33.499 9.51789 33.4288C9.92711 33.2579 10.395 33.3056 10.7613 33.5554C11.1277 33.8053 11.3429 34.2234 11.3332 34.6668C11.3332 35.035 11.6317 35.3334 11.9999 35.3334H13.3332C14.4378 35.3334 15.3332 36.2289 15.3332 37.3334V38.6668H14.6666ZM38.6665 37.3334C38.6665 38.0698 38.0696 38.6668 37.3332 38.6668H24.6666V37.3334C24.6666 36.2289 25.562 35.3334 26.6666 35.3334H27.9999C28.3681 35.3334 28.6666 35.035 28.6666 34.6668C28.6568 34.2234 28.872 33.8052 29.2384 33.5555C29.6049 33.3057 30.0728 33.2583 30.4819 33.4294C30.6651 33.4996 30.8698 33.4856 31.0417 33.391C31.2136 33.2965 31.3351 33.1311 31.3739 32.9388C31.5486 32.0559 32.2926 31.3993 33.1903 31.3357C34.088 31.2721 34.9172 31.8173 35.2146 32.6668C35.3138 32.9389 35.3512 33.2297 35.3239 33.5181C35.2803 33.9785 35.4328 34.436 35.7439 34.7781C36.0659 35.1315 36.5218 35.3331 36.9999 35.3334C37.9204 35.3334 38.6665 36.0796 38.6665 37.0001V37.3334Z" fill="#5A57AB" />
		<path d="M20 19.3335C22.2091 19.3335 24 17.5426 24 15.3335C24 13.1244 22.2091 11.3335 20 11.3335C17.7909 11.3335 16 13.1244 16 15.3335C16.0022 17.5417 17.7918 19.3313 20 19.3335ZM22.6667 15.3335C22.6621 16.5458 21.8405 17.6024 20.6667 17.9055V12.7615C21.8405 13.0646 22.6621 14.1212 22.6667 15.3335ZM19.3333 12.7615V17.9055C18.1572 17.6061 17.334 16.5471 17.334 15.3335C17.334 14.1199 18.1572 13.0608 19.3333 12.7615Z" fill="#5A57AB" />
		<path d="M8.00004 23.3333C7.63185 23.3333 7.33337 23.6318 7.33337 24C7.33337 24.3682 7.63185 24.6667 8.00004 24.6667H8.66671V26.6667C8.66671 27.0349 8.96518 27.3333 9.33337 27.3333C9.70156 27.3333 10 27.0349 10 26.6667V24.6667H13.3334C13.7016 24.6667 14 24.3682 14 24C14 23.6318 13.7016 23.3333 13.3334 23.3333H12V21.3333H14C14.3682 21.3333 14.6667 21.0349 14.6667 20.6667C14.6667 20.2985 14.3682 20 14 20H8.00004C7.63185 20 7.33337 20.2985 7.33337 20.6667C7.33337 21.0349 7.63185 21.3333 8.00004 21.3333H10.6667V23.3333H8.00004Z" fill="#5A57AB" />
		<path d="M26 21.3333H28V23.3333H26.6667C26.2985 23.3333 26 23.6318 26 24C26 24.3682 26.2985 24.6667 26.6667 24.6667H30V26.6667C30 27.0349 30.2985 27.3333 30.6667 27.3333C31.0349 27.3333 31.3334 27.0349 31.3334 26.6667V24.6667H32C32.3682 24.6667 32.6667 24.3682 32.6667 24C32.6667 23.6318 32.3682 23.3333 32 23.3333H29.3334V21.3333H32C32.3682 21.3333 32.6667 21.0349 32.6667 20.6667C32.6667 20.2985 32.3682 20 32 20H26C25.6319 20 25.3334 20.2985 25.3334 20.6667C25.3334 21.0349 25.6319 21.3333 26 21.3333Z" fill="#5A57AB" />
	</g>
	<defs>
		<clipPath id="clip0">
			<rect width="40" height="40" fill="white" />
		</clipPath>
	</defs>
</svg>
