<svg width="36" height="36" viewBox="0 0 36 36" fill="none" xmlns="http://www.w3.org/2000/svg">
<g clip-path="url(#clip0)">
<path d="M12.7736 11.0448V18.1914H15.3724V13.6435C15.3724 13.2848 15.6633 12.9939 16.0221 12.9939H19.9202C20.279 12.9939 20.5699 13.2848 20.5699 13.6435V18.1914H23.1687V11.0448C23.1687 10.686 23.4596 10.3951 23.8184 10.3951H24.5071L17.9711 5.36792L11.4352 10.3951H12.1239C12.4827 10.3951 12.7736 10.686 12.7736 11.0448Z" fill="#8A8C90"/>
<path d="M16.6718 14.2932H19.2705V18.1913H16.6718V14.2932Z" fill="#8A8C90"/>
<path d="M17.9711 36.0001C20.4157 32.9477 30.965 19.4063 30.965 12.9938C30.965 5.81739 25.1472 0 17.9711 0C10.7947 0 4.97733 5.81739 4.97733 12.9938C4.97733 19.4076 15.5262 32.9483 17.9711 36.0001ZM9.12894 10.5321L17.5749 4.03519C17.8084 3.85532 18.1339 3.85532 18.3674 4.03519L26.8133 10.5321C27.0319 10.7024 27.1185 10.9924 27.0291 11.2544C26.9399 11.5165 26.6941 11.6932 26.4171 11.6944H24.468V18.841C24.468 19.1998 24.1771 19.4907 23.8184 19.4907H12.1239C11.7651 19.4907 11.4742 19.1998 11.4742 18.841V11.6944H9.52516C9.24726 11.6944 9.00014 11.5174 8.91036 11.2541C8.82091 10.9908 8.90878 10.6999 9.12894 10.5302V10.5321Z" fill="#8A8C90"/>
</g>
<defs>
<clipPath id="clip0">
<rect width="36" height="36" fill="white"/>
</clipPath>
</defs>
</svg>
