<svg width="18" height="18" viewBox="0 0 18 18" fill="none" xmlns="http://www.w3.org/2000/svg">
<g clip-path="url(#clip0)">
<path d="M1.87498 7.125H3.74996C3.63448 7.125 3.5257 7.07174 3.45448 6.981C3.38321 6.89026 3.35846 6.77175 3.38624 6.65925L3.6195 5.72701C3.74476 5.22526 4.19399 4.875 4.71075 4.875H7.125C7.74526 4.875 8.25 5.37974 8.25 6V6.74999C8.25 6.95699 8.08199 7.125 7.87499 7.125H10.125C9.91799 7.125 9.74998 6.95699 9.74998 6.74999V6C9.74998 5.37974 10.2547 4.875 10.875 4.875H13.2892C13.806 4.875 14.2552 5.22526 14.3805 5.72701L14.6137 6.65925C14.6422 6.77101 14.6167 6.89026 14.5455 6.981C14.4742 7.07174 14.3655 7.125 14.25 7.125H16.125C16.332 7.125 16.5 6.95699 16.5 6.74999V4.49999C16.5 3.4665 15.6585 2.625 14.625 2.625H3.37499C2.3415 2.625 1.5 3.4665 1.5 4.49999V6.74999C1.5 6.95699 1.66798 7.125 1.87498 7.125Z" fill="#A8A8A8"/>
<path d="M16.125 7.875H1.87499C0.8415 7.875 0 8.7165 0 9.74999V15C0 15.207 0.168012 15.375 0.375012 15.375C0.582012 15.375 0.750023 15.207 0.750023 15V13.875H17.25V15C17.25 15.207 17.418 15.375 17.625 15.375C17.832 15.375 18 15.207 18 15V9.74999C18 8.7165 17.1585 7.875 16.125 7.875ZM17.25 13.125H0.749988V12.375H17.25V13.125H17.25Z" fill="black"/>
</g>
<defs>
<clipPath id="clip0">
<rect width="18" height="18" fill="white"/>
</clipPath>
</defs>
</svg>
