<svg width="36" height="36" viewBox="0 0 36 36" fill="none" xmlns="http://www.w3.org/2000/svg">
<g clip-path="url(#clip0)">
<path d="M15.33 23.7081C17.6708 23.7081 19.9158 22.7782 21.571 21.1229C23.2262 19.4677 24.1562 17.2227 24.1562 14.8819C24.1562 12.541 23.2262 10.296 21.571 8.64079C19.9158 6.98556 17.6708 6.05566 15.33 6.05566C12.9891 6.05566 10.7441 6.98556 9.08889 8.64079C7.43366 10.296 6.50376 12.541 6.50376 14.8819C6.50376 17.2227 7.43366 19.4677 9.08889 21.1229C10.7441 22.7782 12.9891 23.7081 15.33 23.7081ZM25.9443 8.55171C26.9862 10.2992 27.5805 12.2768 27.6747 14.309C27.7689 16.3413 27.36 18.3654 26.4843 20.2017C25.6085 22.038 24.2931 23.6298 22.6546 24.8358C21.0161 26.0418 19.1053 26.8246 17.0917 27.115L17.0952 27.2385V29.0038H18.8604C19.3286 29.0038 19.7776 29.1898 20.1086 29.5208C20.4397 29.8518 20.6257 30.3008 20.6257 30.769C20.6257 31.2372 20.4397 31.6862 20.1086 32.0172C19.7776 32.3483 19.3286 32.5343 18.8604 32.5343H17.0952V34.2995C17.0952 34.7677 16.9092 35.2167 16.5782 35.5477C16.2471 35.8788 15.7981 36.0647 15.33 36.0647C14.8618 36.0647 14.4128 35.8788 14.0817 35.5477C13.7507 35.2167 13.5647 34.7677 13.5647 34.2995V32.5343H11.7995C11.3313 32.5343 10.8823 32.3483 10.5513 32.0172C10.2202 31.6862 10.0342 31.2372 10.0342 30.769C10.0342 30.3008 10.2202 29.8518 10.5513 29.5208C10.8823 29.1898 11.3313 29.0038 11.7995 29.0038H13.5647V27.2385C13.5647 27.1962 13.5647 27.1556 13.5682 27.115C10.4812 26.6626 7.67944 25.0596 5.72515 22.6274C3.77087 20.1953 2.80866 17.1141 3.03162 14.0021C3.25458 10.8901 4.6462 7.97748 6.92724 5.84879C9.20828 3.72011 12.21 2.53282 15.33 2.52518C18.4343 2.5214 21.4258 3.68959 23.706 5.79617L26.9717 2.53048H24.1738C23.7056 2.53048 23.2566 2.3445 22.9256 2.01345C22.5945 1.68241 22.4086 1.23341 22.4086 0.765239C22.4086 0.297069 22.5945 -0.151927 22.9256 -0.482973C23.2566 -0.81402 23.7056 -1 24.1738 -1H31.2348C31.7029 -1 32.1519 -0.81402 32.483 -0.482973C32.814 -0.151927 33 0.297069 33 0.765239V7.8262C33 8.29437 32.814 8.74336 32.483 9.07441C32.1519 9.40546 31.7029 9.59144 31.2348 9.59144C30.7666 9.59144 30.3176 9.40546 29.9865 9.07441C29.6555 8.74336 29.4695 8.29437 29.4695 7.8262V5.02653L25.9461 8.55171H25.9443Z" fill="#8A8C90"/>
</g>
<defs>
<clipPath id="clip0">
<rect width="36" height="36" fill="white"/>
</clipPath>
</defs>
</svg>
