<svg width="36" height="36" viewBox="0 0 28 36" fill="none" xmlns="http://www.w3.org/2000/svg">
<path d="M24 12H22.2857V8.57143C22.2857 3.84 18.4457 0 13.7143 0C8.98286 0 5.14286 3.84 5.14286 8.57143V12H3.42857C1.54286 12 0 13.5429 0 15.4286V32.5714C0 34.4571 1.54286 36 3.42857 36H24C25.8857 36 27.4286 34.4571 27.4286 32.5714V15.4286C27.4286 13.5429 25.8857 12 24 12ZM13.7143 27.4286C11.8286 27.4286 10.2857 25.8857 10.2857 24C10.2857 22.1143 11.8286 20.5714 13.7143 20.5714C15.6 20.5714 17.1429 22.1143 17.1429 24C17.1429 25.8857 15.6 27.4286 13.7143 27.4286ZM19.0286 12H8.4V8.57143C8.4 5.64 10.7829 3.25714 13.7143 3.25714C16.6457 3.25714 19.0286 5.64 19.0286 8.57143V12Z" fill="#8A8C90"/>
</svg>
